<svg width="25" height="25" viewBox="0 0 25 25" fill="none" xmlns="http://www.w3.org/2000/svg">
<path d="M5.11771 2.76875C7.27917 2.4875 9.48229 2.34375 11.7188 2.34375C13.9552 2.34375 16.1583 2.48854 18.3198 2.76875C20.3219 3.02917 21.7479 4.70729 21.8667 6.65104C21.5184 6.53503 21.1575 6.46123 20.7917 6.43125C17.8731 6.18897 14.9394 6.18897 12.0208 6.43125C9.56458 6.63542 7.8125 8.7125 7.8125 11.05V15.5146C7.81152 16.3727 8.04768 17.2144 8.49491 17.9467C8.94215 18.679 9.58305 19.2735 10.3469 19.6646L7.58333 22.4271C7.47408 22.5362 7.33493 22.6105 7.18348 22.6406C7.03202 22.6707 6.87504 22.6552 6.73237 22.5961C6.5897 22.5371 6.46774 22.437 6.38188 22.3087C6.29603 22.1803 6.25014 22.0294 6.25 21.875V17.6771C5.87208 17.6369 5.49463 17.5925 5.11771 17.5437C3.02604 17.2708 1.5625 15.451 1.5625 13.3979V6.91458C1.5625 4.8625 3.02604 3.04063 5.11771 2.76875Z" fill="black"/>
<path d="M16.4062 7.8125C14.9729 7.8125 13.5531 7.87188 12.15 7.98854C10.5458 8.12188 9.375 9.48229 9.375 11.051V15.5146C9.375 17.0844 10.55 18.4458 12.1562 18.5771C13.451 18.6833 14.7604 18.7406 16.0812 18.749L18.9792 21.6458C19.0884 21.755 19.2276 21.8293 19.379 21.8593C19.5305 21.8894 19.6875 21.874 19.8301 21.8149C19.9728 21.7558 20.0948 21.6558 20.1806 21.5274C20.2665 21.3991 20.3124 21.2482 20.3125 21.0938V18.6042L20.6562 18.5771C22.2625 18.4469 23.4375 17.0844 23.4375 15.5146V11.05C23.4375 9.48229 22.2656 8.12188 20.6625 7.9875C19.2468 7.87044 17.8268 7.81205 16.4062 7.8125Z" fill="black"/>
</svg>
